<?xml version="1.0" encoding="utf-8"?>
<!-- Generator: Adobe Illustrator 18.0.0, SVG Export Plug-In . SVG Version: 6.00 Build 0)  -->
<!DOCTYPE svg PUBLIC "-//W3C//DTD SVG 1.1//EN" "http://www.w3.org/Graphics/SVG/1.1/DTD/svg11.dtd">
<svg version="1.1" id="Layer_1" xmlns="http://www.w3.org/2000/svg" xmlns:xlink="http://www.w3.org/1999/xlink" x="0px" y="0px"
	 viewBox="0 0 550 550" enable-background="new 0 0 550 550" xml:space="preserve">
<g>
	<g>
		<g>
			<g>
				<path fill="#FFCC33" d="M339,356.4c-2.7,0-2.7,0-5.6,0L273,331.6l-60.4,24.8c-5.6,2.7-13.9,0-16.5-8.3l-27.4-57.8L110.9,263
					c-5.6-2.7-10.9-10.9-8.3-16.5l22.1-60.4l-22.1-60.4c-2.7-5.6,0-13.9,8.3-16.5l57.8-27.4L196,23.9c2.7-5.6,10.9-10.9,16.5-8.3
					L273,37.8l60.4-22.1c5.6-2.7,13.9,0,16.5,8.3l27.7,57.5l57.8,27.4c5.6,2.7,10.9,10.9,8.3,16.5l-22.1,60.4l22.1,60.4
					c2.7,5.6,0,13.9-8.3,16.5l-57.8,27.4l-27.4,57.8C347.3,353.8,341.7,356.4,339,356.4z M273,304.2c2.7,0,2.7,0,5.6,0l52.2,19.2
					l24.8-49.5c0-2.7,2.7-5.6,5.6-5.6l52.2-24.8l-19.2-52.2c0-2.7,0-5.6,0-8.3l19.2-52.2l-52.2-24.8c-2.7,0-5.6-2.7-5.6-5.6
					l-24.8-52.2l-52.2,19.2c-2.7,0-5.6,0-8.3,0l-52.2-19.2l-27.4,49.5c0,2.7-2.7,5.6-5.6,5.6L133,128.3l19.2,52.2c0,2.7,0,5.6,0,8.3
					L133,240.9l52.2,24.8c2.7,0,5.6,2.7,5.6,5.6l24.8,52.2l52.2-19.2C270.3,304.2,270.3,304.2,273,304.2z"/>
			</g>
			<g>
				<g>
					<path fill="#FFCC33" d="M190.4,290.4L130,455.4l52.2-8.3c5.6,0,10.9,0,13.9,5.6l33,41.3l60.4-164.8l24.8,8.3l-68.7,186.9
						c-2.7,5.6-5.6,8.3-10.9,8.3H232c-5.6,0-8.3-2.7-10.9-5.6l-41.3-52.2l-66,10.9c-5.6,0-10.9,0-13.9-5.6
						c-2.7-2.7-2.7-8.3-2.7-13.9L166,279.5L190.4,290.4z"/>
				</g>
				<g>
					<path fill="#FFCC33" d="M380.3,282.1L451.6,469c2.7,5.6,0,10.9-2.7,13.9s-8.3,5.6-13.9,5.6l-66-10.9l-41.3,52.2
						c-2.7,2.7-5.6,5.6-10.9,5.6h-2.7c-5.6,0-8.3-2.7-10.9-8.3l-43.9-115.5l24.8-10.9l33,90.8l33-41.3c2.7-2.7,8.3-5.6,13.9-5.6
						l52.2,8.3l-60.7-165.1L380.3,282.1z"/>
				</g>
			</g>
		</g>
	</g>
</g>
<text transform="matrix(1 0 0 1 220.0034 264.6588)" fill="#FFCC33" font-family="'ArmWrestler-Bold'" font-size="214.456">1</text>
</svg>
