<?xml version="1.0" encoding="utf-8"?>
<!-- Generator: Adobe Illustrator 18.0.0, SVG Export Plug-In . SVG Version: 6.00 Build 0)  -->
<!DOCTYPE svg PUBLIC "-//W3C//DTD SVG 1.1//EN" "http://www.w3.org/Graphics/SVG/1.1/DTD/svg11.dtd">
<svg version="1.1" id="Layer_1" xmlns="http://www.w3.org/2000/svg" xmlns:xlink="http://www.w3.org/1999/xlink" x="0px" y="0px"
	 viewBox="0 0 550 550" enable-background="new 0 0 550 550" xml:space="preserve">
<g>
	<g>
		<g>
			<g>
				<path fill="#CCCCCC" d="M318.7,362.2c-2.5,0-2.5,0-5.3,0l-57.2-23.4L199,362.2c-5.3,2.5-13.1,0-15.6-7.8l-25.9-54.7l-54.7-25.9
					c-5.3-2.5-10.3-10.3-7.8-15.6l20.9-57.2L95,143.8c-2.5-5.3,0-13.1,7.8-15.6l54.7-25.9l25.9-54.7c2.5-5.3,10.3-10.3,15.6-7.8
					l57.2,20.9l57.2-20.9c5.3-2.5,13.1,0,15.6,7.8l25.9,54.7l54.7,25.9c5.3,2.5,10.3,10.3,7.8,15.6L396.5,201l20.9,57.2
					c2.5,5.3,0,13.1-7.8,15.6l-54.7,25.9L329,354.4C326.5,359.4,321.5,362.2,318.7,362.2z M256.5,312.8c2.5,0,2.5,0,5.3,0l49.4,18.1
					l23.4-46.9c0-2.5,2.5-5.3,5.3-5.3l49.4-23.4L371.1,206c0-2.5,0-5.3,0-7.8l18.1-49.4l-49.4-23.4c-2.5,0-5.3-2.5-5.3-5.3
					l-23.4-49.4l-49.4,18.1c-2.5,0-5.3,0-7.8,0l-49.4-18.1l-25.9,46.9c0,2.5-2.5,5.3-5.3,5.3L124,146.3l18.1,49.4c0,2.5,0,5.3,0,7.8
					L124,252.9l49.4,23.4c2.5,0,5.3,2.5,5.3,5.3l23.4,49.4l49.4-18.1C253.7,312.8,253.7,312.8,256.5,312.8z"/>
			</g>
			<g>
				<g>
					<path fill="#CCCCCC" d="M178.4,299.7l-57.2,155.9l49.4-7.8c5.3,0,10.3,0,13.1,5.3l31.2,39l57.2-155.9l23.4,7.8l-65,176.8
						c-2.5,5.3-5.3,7.8-10.3,7.8h-2.5c-5.3,0-7.8-2.5-10.3-5.3l-39-49.4l-62.5,10.3c-5.3,0-10.3,0-13.1-5.3
						c-2.5-2.5-2.5-7.8-2.5-13.1l65-176.8L178.4,299.7z"/>
				</g>
				<g>
					<path fill="#CCCCCC" d="M357.7,291.9l67.5,176.8c2.5,5.3,0,10.3-2.5,13.1c-2.5,2.8-7.8,5.3-13.1,5.3l-62.5-10.3l-39,49.4
						c-2.5,2.5-5.3,5.3-10.3,5.3h-2.5c-5.3,0-7.8-2.5-10.3-7.8l-41.6-109.3l23.4-10.3l31.2,85.9l31.2-39c2.5-2.5,7.8-5.3,13.1-5.3
						l49.4,7.8l-57.5-156.2L357.7,291.9z"/>
				</g>
			</g>
		</g>
	</g>
</g>
<text transform="matrix(1 0 0 1 206.7748 275.17)" fill="#CCCCCC" font-family="'ArmWrestler-Bold'" font-size="202.9225">2</text>
</svg>
