<?xml version="1.0" encoding="utf-8"?>
<!-- Generator: Adobe Illustrator 18.0.0, SVG Export Plug-In . SVG Version: 6.00 Build 0)  -->
<!DOCTYPE svg PUBLIC "-//W3C//DTD SVG 1.1//EN" "http://www.w3.org/Graphics/SVG/1.1/DTD/svg11.dtd">
<svg version="1.1" id="Layer_1" xmlns="http://www.w3.org/2000/svg" xmlns:xlink="http://www.w3.org/1999/xlink" x="0px" y="0px"
	 viewBox="0 0 550 550" enable-background="new 0 0 550 550" xml:space="preserve">
<g>
	<g>
		<g>
			<g>
				<path fill="#996633" d="M340.6,357.6c-2.7,0-2.7,0-5.7,0l-61.6-25.2l-61.6,25.2c-5.7,2.7-14.1,0-16.8-8.4l-27.9-58.9l-58.9-27.9
					c-5.7-2.7-11.1-11.1-8.4-16.8l22.5-61.6l-22.5-61.6c-2.7-5.7,0-14.1,8.4-16.8l58.9-27.9l27.9-58.9c2.7-5.7,11.1-11.1,16.8-8.4
					l61.6,22.5l61.6-22.5c5.7-2.7,14.1,0,16.8,8.4l27.9,58.9l58.9,27.9c5.7,2.7,11.1,11.1,8.4,16.8l-22.5,61.6l22.5,61.6
					c2.7,5.7,0,14.1-8.4,16.8l-58.9,27.9l-27.9,58.9C349,354.9,343.3,357.6,340.6,357.6z M273.2,304.4c2.7,0,2.7,0,5.7,0l53.2,19.5
					l25.2-50.5c0-2.7,2.7-5.7,5.7-5.7l53.2-25.2l-19.5-53.2c0-2.7,0-5.7,0-8.4l19.5-53.2l-53.2-25.2c-2.7,0-5.7-2.7-5.7-5.7
					l-25.2-53.2L278.9,63c-2.7,0-5.7,0-8.4,0l-53.2-19.5L189.4,94c0,2.7-2.7,5.7-5.7,5.7L130.5,125l19.5,53.2c0,2.7,0,5.7,0,8.4
					l-19.5,53.2l53.2,25.2c2.7,0,5.7,2.7,5.7,5.7l25.2,53.2l53.2-19.5C270.2,304.4,270.2,304.4,273.2,304.4z"/>
			</g>
			<g>
				<g>
					<path fill="#996633" d="M189.1,290.2l-61.6,168l53.2-8.4c5.7,0,11.1,0,14.1,5.7l33.7,42.1l61.6-168l25.2,8.4L245,528.6
						c-2.7,5.7-5.7,8.4-11.1,8.4h-2.7c-5.7,0-8.4-2.7-11.1-5.7L178,478.1l-67.3,11.1c-5.7,0-11.1,0-14.1-5.7
						c-2.7-2.7-2.7-8.4-2.7-14.1l70-190.5L189.1,290.2z"/>
				</g>
				<g>
					<path fill="#996633" d="M382.3,281.8l72.7,190.5c2.7,5.7,0,11.1-2.7,14.1c-2.7,3-8.4,5.7-14.1,5.7l-67.3-11.1L329.1,534
						c-2.7,2.7-5.7,5.7-11.1,5.7h-2.7c-5.7,0-8.4-2.7-11.1-8.4l-44.8-117.8l25.2-11.1l33.7,92.6l33.7-42.1c2.7-2.7,8.4-5.7,14.1-5.7
						l53.2,8.4l-62.2-168L382.3,281.8z"/>
				</g>
			</g>
		</g>
	</g>
</g>
<text transform="matrix(1 0 0 1 219.527 259.2657)" fill="#996633" font-family="'ArmWrestler-Bold'" font-size="218.6577">3</text>
</svg>
