<?xml version="1.0" encoding="utf-8"?>
<!-- Generator: Adobe Illustrator 18.0.0, SVG Export Plug-In . SVG Version: 6.00 Build 0)  -->
<!DOCTYPE svg PUBLIC "-//W3C//DTD SVG 1.1//EN" "http://www.w3.org/Graphics/SVG/1.1/DTD/svg11.dtd">
<svg version="1.1" id="Layer_1" xmlns="http://www.w3.org/2000/svg" xmlns:xlink="http://www.w3.org/1999/xlink" x="0px" y="0px"
	 viewBox="0 0 550 550" enable-background="new 0 0 550 550" xml:space="preserve">
<g>
	<g>
		<g>
			<g>
				<path fill="#999999" d="M349.9,357.1c-2.7,0-2.7,0-5.7,0l-61.6-25.2l-61.6,25.2c-5.7,2.7-14.1,0-16.8-8.4l-27.9-58.9l-58.9-27.9
					c-5.7-2.7-11.1-11.1-8.4-16.8l22.5-61.6L109,121.9c-2.7-5.7,0-14.1,8.4-16.8l58.9-27.9l27.9-58.9c2.7-5.7,11.1-11.1,16.8-8.4
					l61.6,22.5l61.6-22.5c5.7-2.7,14.1,0,16.8,8.4L389,77.2l58.9,27.9c5.7,2.7,11.1,11.1,8.4,16.8l-22.5,61.6l22.5,61.6
					c2.7,5.7,0,14.1-8.4,16.8L389,289.9L361,348.7C358,354.4,352.6,357.1,349.9,357.1z M282.6,304c2.7,0,2.7,0,5.7,0l53.2,19.5
					l25.2-50.5c0-2.7,2.7-5.7,5.7-5.7l53.2-25.2l-19.5-53.2c0-2.7,0-5.7,0-8.4l19.5-53.2l-53.2-25.2c-2.7,0-5.7-2.7-5.7-5.7
					l-25.2-53.2l-53.2,19.5c-2.7,0-5.7,0-8.4,0l-53.2-19.5l-27.9,50.5c0,2.7-2.7,5.7-5.7,5.7l-53.2,25.2l19.5,53.2
					c0,2.7,0,5.7,0,8.4l-19.5,53.2l53.2,25.2c2.7,0,5.7,2.7,5.7,5.7l25.2,53.2l53.2-19.5C279.6,304,279.6,304,282.6,304z"/>
			</g>
			<g>
				<g>
					<path fill="#999999" d="M198.5,289.9l-61.6,167.9l53.2-8.4c5.7,0,11.1,0,14.1,5.7l33.6,42.1l61.6-167.9l25.2,8.4l-70,190.5
						c-2.7,5.7-5.7,8.4-11.1,8.4h-2.7c-5.7,0-8.4-2.7-11.1-5.7l-42.1-53.2l-67.3,11.1c-5.7,0-11.1,0-14.1-5.7
						c-2.7-2.7-2.7-8.4-2.7-14.1l70-190.5L198.5,289.9z"/>
				</g>
				<g>
					<path fill="#999999" d="M391.7,281.4l72.7,190.5c2.7,5.7,0,11.1-2.7,14.1c-2.7,3-8.4,5.7-14.1,5.7l-67.3-11.1l-42.1,53.2
						c-2.7,2.7-5.7,5.7-11.1,5.7h-2.7c-5.7,0-8.4-2.7-11.1-8.4l-44.8-117.8l25.2-11.1l33.6,92.5l33.6-42.1c2.7-2.7,8.4-5.7,14.1-5.7
						l53.2,8.4l-61.6-167.9L391.7,281.4z"/>
				</g>
			</g>
		</g>
	</g>
</g>
<text transform="matrix(1 0 0 1 212.7285 251.3799)" fill="#999999" font-family="'ArmWrestler-Bold'" font-size="218.5751">4</text>
</svg>
