<svg xmlns:dc="http://purl.org/dc/elements/1.1/" xmlns:cc="http://creativecommons.org/ns#" xmlns:rdf="http://www.w3.org/1999/02/22-rdf-syntax-ns#" xmlns:svg="http://www.w3.org/2000/svg" xmlns="http://www.w3.org/2000/svg" viewBox="0 0 1000 1000" height="1000" width="1000" xml:space="preserve" version="1.1" id="svg2"><metadata id="metadata8"><rdf:RDF><cc:Work rdf:about=""><dc:format>image/svg+xml</dc:format><dc:type rdf:resource="http://purl.org/dc/dcmitype/StillImage"/></cc:Work></rdf:RDF></metadata><defs id="defs6"><clipPath id="clipPath18" clipPathUnits="userSpaceOnUse"><path id="path20" d="M 0,800 800,800 800,0 0,0 0,800 Z"/></clipPath><clipPath id="clipPath26" clipPathUnits="userSpaceOnUse"><path id="path28" d="m 93.7461,92.1553 220.6449,0 0,-33.1641 -220.6449,0 0,33.1641 z"/></clipPath><clipPath id="clipPath42" clipPathUnits="userSpaceOnUse"><path id="path44" d="m 398.791,110.075 365.949,0 0,-55.0037 -365.949,0 0,55.0037 z"/></clipPath><clipPath id="clipPath70" clipPathUnits="userSpaceOnUse"><path id="path72" d="M 0,800 800,800 800,0 0,0 0,800 Z"/></clipPath><clipPath id="clipPath202" clipPathUnits="userSpaceOnUse"><path id="path204" d="m 0,160.422 800,0 0,-1 -800,0 0,1 z"/></clipPath><clipPath id="clipPath226" clipPathUnits="userSpaceOnUse"><path id="path228" d="m 0,197.296 800,0 0,-1 -800,0 0,1 z"/></clipPath><clipPath id="clipPath250" clipPathUnits="userSpaceOnUse"><path id="path252" d="m 0,234.17 800,0 0,-1 -800,0 0,1 z"/></clipPath><clipPath id="clipPath274" clipPathUnits="userSpaceOnUse"><path id="path276" d="m 0,271.044 800,0 0,-1 -800,0 0,1 z"/></clipPath><clipPath id="clipPath298" clipPathUnits="userSpaceOnUse"><path id="path300" d="m 0,307.918 800,0 0,-1 -800,0 0,1 z"/></clipPath><clipPath id="clipPath322" clipPathUnits="userSpaceOnUse"><path id="path324" d="m 0,344.792 800,0 0,-1 -800,0 0,1 z"/></clipPath><clipPath id="clipPath346" clipPathUnits="userSpaceOnUse"><path id="path348" d="m 0,381.666 800,0 0,-1 -800,0 0,1 z"/></clipPath><clipPath id="clipPath370" clipPathUnits="userSpaceOnUse"><path id="path372" d="m 0,418.54 800,0 0,-1 -800,0 0,1 z"/></clipPath><clipPath id="clipPath394" clipPathUnits="userSpaceOnUse"><path id="path396" d="m 0,455.414 800,0 0,-1 -800,0 0,1 z"/></clipPath><clipPath id="clipPath418" clipPathUnits="userSpaceOnUse"><path id="path420" d="m 0,492.288 800,0 0,-1 -800,0 0,1 z"/></clipPath><clipPath id="clipPath442" clipPathUnits="userSpaceOnUse"><path id="path444" d="m 0,529.162 800,0 0,-1 -800,0 0,1 z"/></clipPath><clipPath id="clipPath466" clipPathUnits="userSpaceOnUse"><path id="path468" d="m 0,566.036 800,0 0,-1 -800,0 0,1 z"/></clipPath><clipPath id="clipPath490" clipPathUnits="userSpaceOnUse"><path id="path492" d="m 0,602.91 800,0 0,-1 -800,0 0,1 z"/></clipPath><clipPath id="clipPath514" clipPathUnits="userSpaceOnUse"><path id="path516" d="m 0,639.784 800,0 0,-1 -800,0 0,1 z"/></clipPath><clipPath id="clipPath538" clipPathUnits="userSpaceOnUse"><path id="path540" d="m 0,676.658 800,0 0,-1 -800,0 0,1 z"/></clipPath><clipPath id="clipPath562" clipPathUnits="userSpaceOnUse"><path id="path564" d="m 0,713.532 800,0 0,-1 -800,0 0,1 z"/></clipPath><clipPath id="clipPath586" clipPathUnits="userSpaceOnUse"><path id="path588" d="m 0,750.406 800,0 0,-1 -800,0 0,1 z"/></clipPath><clipPath id="clipPath610" clipPathUnits="userSpaceOnUse"><path id="path612" d="m 0,787.28 800,0 0,-1 -800,0 0,1 z"/></clipPath><clipPath id="clipPath646" clipPathUnits="userSpaceOnUse"><path id="path648" d="M 0,800 800,800 800,0 0,0 0,800 Z"/></clipPath></defs><g transform="matrix(1.25,0,0,-1.25,0,1000)" id="g10"><path id="path12" style="fill:#00a89c;fill-opacity:1;fill-rule:nonzero;stroke:none" d="M 0,0 800,0 800,800 0,800 0,0 Z"/><g id="g14"><g clip-path="url(#clipPath18)" id="g16"><g id="g22"><g id="g24"/><g id="g30"><g style="opacity:0.10000598" id="g32" clip-path="url(#clipPath26)"><g id="g34" transform="translate(314.3906,75.5732)"><path id="path36" style="fill:#4d4d4d;fill-opacity:1;fill-rule:nonzero;stroke:none" d="m 0,0 c 0,-9.158 -49.393,-16.582 -110.322,-16.582 -60.929,0 -110.323,7.424 -110.323,16.582 0,9.158 49.394,16.582 110.323,16.582 C -49.393,16.582 0,9.158 0,0"/></g></g></g></g><g id="g38"><g id="g40"/><g id="g46"><g style="opacity:0.10000598" id="g48" clip-path="url(#clipPath42)"><g id="g50" transform="translate(764.7402,82.5732)"><path id="path52" style="fill:#4d4d4d;fill-opacity:1;fill-rule:nonzero;stroke:none" d="m 0,0 c 0,-15.189 -81.92,-27.502 -182.975,-27.502 -101.053,0 -182.975,12.313 -182.975,27.502 0,15.189 81.922,27.502 182.975,27.502 C -81.92,27.502 0,15.189 0,0"/></g></g></g></g></g></g><g transform="translate(602.8369,704.4985)" id="g54"><path id="path56" style="fill:none;stroke:#f1f1f1;stroke-width:4;stroke-linecap:round;stroke-linejoin:miter;stroke-miterlimit:10;stroke-dasharray:none;stroke-opacity:1" d="M 0,0 25.242,64.393"/></g><g transform="translate(628.0791,675.896)" id="g58"><path id="path60" style="fill:none;stroke:#f1f1f1;stroke-width:4;stroke-linecap:round;stroke-linejoin:miter;stroke-miterlimit:10;stroke-dasharray:none;stroke-opacity:1" d="M 0,0 73.496,41.998"/></g><g transform="translate(628.0791,639.8975)" id="g62"><path id="path64" style="fill:none;stroke:#f1f1f1;stroke-width:4;stroke-linecap:round;stroke-linejoin:miter;stroke-miterlimit:10;stroke-dasharray:none;stroke-opacity:1" d="M 0,0 64.497,-38.746"/></g><g id="g66"><g clip-path="url(#clipPath70)" id="g68"><g id="g198"><g id="g200"/><g id="g206"><g style="opacity:0.69999701" id="g208" clip-path="url(#clipPath202)"><g id="g210" transform="translate(0,159.9219)"><path id="path212" style="fill:none;stroke:#f1f1f1;stroke-width:1;stroke-linecap:butt;stroke-linejoin:miter;stroke-miterlimit:10;stroke-dasharray:none;stroke-opacity:1" d="M 0,0 4,0"/></g><g id="g214" transform="translate(12,159.9219)"><path id="path216" style="fill:none;stroke:#f1f1f1;stroke-width:1;stroke-linecap:butt;stroke-linejoin:miter;stroke-miterlimit:10;stroke-dasharray:8, 8;stroke-dashoffset:0;stroke-opacity:1" d="M 0,0 780,0"/></g><g id="g218" transform="translate(796,159.9219)"><path id="path220" style="fill:none;stroke:#f1f1f1;stroke-width:1;stroke-linecap:butt;stroke-linejoin:miter;stroke-miterlimit:10;stroke-dasharray:none;stroke-opacity:1" d="M 0,0 4,0"/></g></g></g></g><g id="g222"><g id="g224"/><g id="g230"><g style="opacity:0.69999701" id="g232" clip-path="url(#clipPath226)"><g id="g234" transform="translate(0,196.7959)"><path id="path236" style="fill:none;stroke:#f1f1f1;stroke-width:1;stroke-linecap:butt;stroke-linejoin:miter;stroke-miterlimit:10;stroke-dasharray:none;stroke-opacity:1" d="M 0,0 4,0"/></g><g id="g238" transform="translate(12,196.7959)"><path id="path240" style="fill:none;stroke:#f1f1f1;stroke-width:1;stroke-linecap:butt;stroke-linejoin:miter;stroke-miterlimit:10;stroke-dasharray:8, 8;stroke-dashoffset:0;stroke-opacity:1" d="M 0,0 780,0"/></g><g id="g242" transform="translate(796,196.7959)"><path id="path244" style="fill:none;stroke:#f1f1f1;stroke-width:1;stroke-linecap:butt;stroke-linejoin:miter;stroke-miterlimit:10;stroke-dasharray:none;stroke-opacity:1" d="M 0,0 4,0"/></g></g></g></g><g id="g246"><g id="g248"/><g id="g254"><g style="opacity:0.69999701" id="g256" clip-path="url(#clipPath250)"><g id="g258" transform="translate(0,233.6699)"><path id="path260" style="fill:none;stroke:#f1f1f1;stroke-width:1;stroke-linecap:butt;stroke-linejoin:miter;stroke-miterlimit:10;stroke-dasharray:none;stroke-opacity:1" d="M 0,0 4,0"/></g><g id="g262" transform="translate(12,233.6699)"><path id="path264" style="fill:none;stroke:#f1f1f1;stroke-width:1;stroke-linecap:butt;stroke-linejoin:miter;stroke-miterlimit:10;stroke-dasharray:8, 8;stroke-dashoffset:0;stroke-opacity:1" d="M 0,0 780,0"/></g><g id="g266" transform="translate(796,233.6699)"><path id="path268" style="fill:none;stroke:#f1f1f1;stroke-width:1;stroke-linecap:butt;stroke-linejoin:miter;stroke-miterlimit:10;stroke-dasharray:none;stroke-opacity:1" d="M 0,0 4,0"/></g></g></g></g><g id="g270"><g id="g272"/><g id="g278"><g style="opacity:0.69999701" id="g280" clip-path="url(#clipPath274)"><g id="g282" transform="translate(0,270.5439)"><path id="path284" style="fill:none;stroke:#f1f1f1;stroke-width:1;stroke-linecap:butt;stroke-linejoin:miter;stroke-miterlimit:10;stroke-dasharray:none;stroke-opacity:1" d="M 0,0 4,0"/></g><g id="g286" transform="translate(12,270.5439)"><path id="path288" style="fill:none;stroke:#f1f1f1;stroke-width:1;stroke-linecap:butt;stroke-linejoin:miter;stroke-miterlimit:10;stroke-dasharray:8, 8;stroke-dashoffset:0;stroke-opacity:1" d="M 0,0 780,0"/></g><g id="g290" transform="translate(796,270.5439)"><path id="path292" style="fill:none;stroke:#f1f1f1;stroke-width:1;stroke-linecap:butt;stroke-linejoin:miter;stroke-miterlimit:10;stroke-dasharray:none;stroke-opacity:1" d="M 0,0 4,0"/></g></g></g></g><g id="g294"><g id="g296"/><g id="g302"><g style="opacity:0.69999701" id="g304" clip-path="url(#clipPath298)"><g id="g306" transform="translate(0,307.418)"><path id="path308" style="fill:none;stroke:#f1f1f1;stroke-width:1;stroke-linecap:butt;stroke-linejoin:miter;stroke-miterlimit:10;stroke-dasharray:none;stroke-opacity:1" d="M 0,0 4,0"/></g><g id="g310" transform="translate(12,307.418)"><path id="path312" style="fill:none;stroke:#f1f1f1;stroke-width:1;stroke-linecap:butt;stroke-linejoin:miter;stroke-miterlimit:10;stroke-dasharray:8, 8;stroke-dashoffset:0;stroke-opacity:1" d="M 0,0 780,0"/></g><g id="g314" transform="translate(796,307.418)"><path id="path316" style="fill:none;stroke:#f1f1f1;stroke-width:1;stroke-linecap:butt;stroke-linejoin:miter;stroke-miterlimit:10;stroke-dasharray:none;stroke-opacity:1" d="M 0,0 4,0"/></g></g></g></g><g id="g318"><g id="g320"/><g id="g326"><g style="opacity:0.69999701" id="g328" clip-path="url(#clipPath322)"><g id="g330" transform="translate(0,344.292)"><path id="path332" style="fill:none;stroke:#f1f1f1;stroke-width:1;stroke-linecap:butt;stroke-linejoin:miter;stroke-miterlimit:10;stroke-dasharray:none;stroke-opacity:1" d="M 0,0 4,0"/></g><g id="g334" transform="translate(12,344.292)"><path id="path336" style="fill:none;stroke:#f1f1f1;stroke-width:1;stroke-linecap:butt;stroke-linejoin:miter;stroke-miterlimit:10;stroke-dasharray:8, 8;stroke-dashoffset:0;stroke-opacity:1" d="M 0,0 780,0"/></g><g id="g338" transform="translate(796,344.292)"><path id="path340" style="fill:none;stroke:#f1f1f1;stroke-width:1;stroke-linecap:butt;stroke-linejoin:miter;stroke-miterlimit:10;stroke-dasharray:none;stroke-opacity:1" d="M 0,0 4,0"/></g></g></g></g><g id="g342"><g id="g344"/><g id="g350"><g style="opacity:0.69999701" id="g352" clip-path="url(#clipPath346)"><g id="g354" transform="translate(0,381.166)"><path id="path356" style="fill:none;stroke:#f1f1f1;stroke-width:1;stroke-linecap:butt;stroke-linejoin:miter;stroke-miterlimit:10;stroke-dasharray:none;stroke-opacity:1" d="M 0,0 4,0"/></g><g id="g358" transform="translate(12,381.166)"><path id="path360" style="fill:none;stroke:#f1f1f1;stroke-width:1;stroke-linecap:butt;stroke-linejoin:miter;stroke-miterlimit:10;stroke-dasharray:8, 8;stroke-dashoffset:0;stroke-opacity:1" d="M 0,0 780,0"/></g><g id="g362" transform="translate(796,381.166)"><path id="path364" style="fill:none;stroke:#f1f1f1;stroke-width:1;stroke-linecap:butt;stroke-linejoin:miter;stroke-miterlimit:10;stroke-dasharray:none;stroke-opacity:1" d="M 0,0 4,0"/></g></g></g></g><g id="g366"><g id="g368"/><g id="g374"><g style="opacity:0.69999701" id="g376" clip-path="url(#clipPath370)"><g id="g378" transform="translate(0,418.04)"><path id="path380" style="fill:none;stroke:#f1f1f1;stroke-width:1;stroke-linecap:butt;stroke-linejoin:miter;stroke-miterlimit:10;stroke-dasharray:none;stroke-opacity:1" d="M 0,0 4,0"/></g><g id="g382" transform="translate(12,418.04)"><path id="path384" style="fill:none;stroke:#f1f1f1;stroke-width:1;stroke-linecap:butt;stroke-linejoin:miter;stroke-miterlimit:10;stroke-dasharray:8, 8;stroke-dashoffset:0;stroke-opacity:1" d="M 0,0 780,0"/></g><g id="g386" transform="translate(796,418.04)"><path id="path388" style="fill:none;stroke:#f1f1f1;stroke-width:1;stroke-linecap:butt;stroke-linejoin:miter;stroke-miterlimit:10;stroke-dasharray:none;stroke-opacity:1" d="M 0,0 4,0"/></g></g></g></g><g id="g390"><g id="g392"/><g id="g398"><g style="opacity:0.69999701" id="g400" clip-path="url(#clipPath394)"><g id="g402" transform="translate(0,454.9141)"><path id="path404" style="fill:none;stroke:#f1f1f1;stroke-width:1;stroke-linecap:butt;stroke-linejoin:miter;stroke-miterlimit:10;stroke-dasharray:none;stroke-opacity:1" d="M 0,0 4,0"/></g><g id="g406" transform="translate(12,454.9141)"><path id="path408" style="fill:none;stroke:#f1f1f1;stroke-width:1;stroke-linecap:butt;stroke-linejoin:miter;stroke-miterlimit:10;stroke-dasharray:8, 8;stroke-dashoffset:0;stroke-opacity:1" d="M 0,0 780,0"/></g><g id="g410" transform="translate(796,454.9141)"><path id="path412" style="fill:none;stroke:#f1f1f1;stroke-width:1;stroke-linecap:butt;stroke-linejoin:miter;stroke-miterlimit:10;stroke-dasharray:none;stroke-opacity:1" d="M 0,0 4,0"/></g></g></g></g><g id="g414"><g id="g416"/><g id="g422"><g style="opacity:0.69999701" id="g424" clip-path="url(#clipPath418)"><g id="g426" transform="translate(0,491.7881)"><path id="path428" style="fill:none;stroke:#f1f1f1;stroke-width:1;stroke-linecap:butt;stroke-linejoin:miter;stroke-miterlimit:10;stroke-dasharray:none;stroke-opacity:1" d="M 0,0 4,0"/></g><g id="g430" transform="translate(12,491.7881)"><path id="path432" style="fill:none;stroke:#f1f1f1;stroke-width:1;stroke-linecap:butt;stroke-linejoin:miter;stroke-miterlimit:10;stroke-dasharray:8, 8;stroke-dashoffset:0;stroke-opacity:1" d="M 0,0 780,0"/></g><g id="g434" transform="translate(796,491.7881)"><path id="path436" style="fill:none;stroke:#f1f1f1;stroke-width:1;stroke-linecap:butt;stroke-linejoin:miter;stroke-miterlimit:10;stroke-dasharray:none;stroke-opacity:1" d="M 0,0 4,0"/></g></g></g></g><g id="g438"><g id="g440"/><g id="g446"><g style="opacity:0.69999701" id="g448" clip-path="url(#clipPath442)"><g id="g450" transform="translate(0,528.6621)"><path id="path452" style="fill:none;stroke:#f1f1f1;stroke-width:1;stroke-linecap:butt;stroke-linejoin:miter;stroke-miterlimit:10;stroke-dasharray:none;stroke-opacity:1" d="M 0,0 4,0"/></g><g id="g454" transform="translate(12,528.6621)"><path id="path456" style="fill:none;stroke:#f1f1f1;stroke-width:1;stroke-linecap:butt;stroke-linejoin:miter;stroke-miterlimit:10;stroke-dasharray:8, 8;stroke-dashoffset:0;stroke-opacity:1" d="M 0,0 780,0"/></g><g id="g458" transform="translate(796,528.6621)"><path id="path460" style="fill:none;stroke:#f1f1f1;stroke-width:1;stroke-linecap:butt;stroke-linejoin:miter;stroke-miterlimit:10;stroke-dasharray:none;stroke-opacity:1" d="M 0,0 4,0"/></g></g></g></g><g id="g462"><g id="g464"/><g id="g470"><g style="opacity:0.69999701" id="g472" clip-path="url(#clipPath466)"><g id="g474" transform="translate(0,565.5361)"><path id="path476" style="fill:none;stroke:#f1f1f1;stroke-width:1;stroke-linecap:butt;stroke-linejoin:miter;stroke-miterlimit:10;stroke-dasharray:none;stroke-opacity:1" d="M 0,0 4,0"/></g><g id="g478" transform="translate(12,565.5361)"><path id="path480" style="fill:none;stroke:#f1f1f1;stroke-width:1;stroke-linecap:butt;stroke-linejoin:miter;stroke-miterlimit:10;stroke-dasharray:8, 8;stroke-dashoffset:0;stroke-opacity:1" d="M 0,0 780,0"/></g><g id="g482" transform="translate(796,565.5361)"><path id="path484" style="fill:none;stroke:#f1f1f1;stroke-width:1;stroke-linecap:butt;stroke-linejoin:miter;stroke-miterlimit:10;stroke-dasharray:none;stroke-opacity:1" d="M 0,0 4,0"/></g></g></g></g><g id="g486"><g id="g488"/><g id="g494"><g style="opacity:0.69999701" id="g496" clip-path="url(#clipPath490)"><g id="g498" transform="translate(0,602.4102)"><path id="path500" style="fill:none;stroke:#f1f1f1;stroke-width:1;stroke-linecap:butt;stroke-linejoin:miter;stroke-miterlimit:10;stroke-dasharray:none;stroke-opacity:1" d="M 0,0 4,0"/></g><g id="g502" transform="translate(12,602.4102)"><path id="path504" style="fill:none;stroke:#f1f1f1;stroke-width:1;stroke-linecap:butt;stroke-linejoin:miter;stroke-miterlimit:10;stroke-dasharray:8, 8;stroke-dashoffset:0;stroke-opacity:1" d="M 0,0 780,0"/></g><g id="g506" transform="translate(796,602.4102)"><path id="path508" style="fill:none;stroke:#f1f1f1;stroke-width:1;stroke-linecap:butt;stroke-linejoin:miter;stroke-miterlimit:10;stroke-dasharray:none;stroke-opacity:1" d="M 0,0 4,0"/></g></g></g></g><g id="g510"><g id="g512"/><g id="g518"><g style="opacity:0.69999701" id="g520" clip-path="url(#clipPath514)"><g id="g522" transform="translate(0,639.2842)"><path id="path524" style="fill:none;stroke:#f1f1f1;stroke-width:1;stroke-linecap:butt;stroke-linejoin:miter;stroke-miterlimit:10;stroke-dasharray:none;stroke-opacity:1" d="M 0,0 4,0"/></g><g id="g526" transform="translate(12,639.2842)"><path id="path528" style="fill:none;stroke:#f1f1f1;stroke-width:1;stroke-linecap:butt;stroke-linejoin:miter;stroke-miterlimit:10;stroke-dasharray:8, 8;stroke-dashoffset:0;stroke-opacity:1" d="M 0,0 780,0"/></g><g id="g530" transform="translate(796,639.2842)"><path id="path532" style="fill:none;stroke:#f1f1f1;stroke-width:1;stroke-linecap:butt;stroke-linejoin:miter;stroke-miterlimit:10;stroke-dasharray:none;stroke-opacity:1" d="M 0,0 4,0"/></g></g></g></g><g id="g534"><g id="g536"/><g id="g542"><g style="opacity:0.69999701" id="g544" clip-path="url(#clipPath538)"><g id="g546" transform="translate(0,676.1582)"><path id="path548" style="fill:none;stroke:#f1f1f1;stroke-width:1;stroke-linecap:butt;stroke-linejoin:miter;stroke-miterlimit:10;stroke-dasharray:none;stroke-opacity:1" d="M 0,0 4,0"/></g><g id="g550" transform="translate(12,676.1582)"><path id="path552" style="fill:none;stroke:#f1f1f1;stroke-width:1;stroke-linecap:butt;stroke-linejoin:miter;stroke-miterlimit:10;stroke-dasharray:8, 8;stroke-dashoffset:0;stroke-opacity:1" d="M 0,0 780,0"/></g><g id="g554" transform="translate(796,676.1582)"><path id="path556" style="fill:none;stroke:#f1f1f1;stroke-width:1;stroke-linecap:butt;stroke-linejoin:miter;stroke-miterlimit:10;stroke-dasharray:none;stroke-opacity:1" d="M 0,0 4,0"/></g></g></g></g><g id="g558"><g id="g560"/><g id="g566"><g style="opacity:0.69999701" id="g568" clip-path="url(#clipPath562)"><g id="g570" transform="translate(0,713.0322)"><path id="path572" style="fill:none;stroke:#f1f1f1;stroke-width:1;stroke-linecap:butt;stroke-linejoin:miter;stroke-miterlimit:10;stroke-dasharray:none;stroke-opacity:1" d="M 0,0 4,0"/></g><g id="g574" transform="translate(12,713.0322)"><path id="path576" style="fill:none;stroke:#f1f1f1;stroke-width:1;stroke-linecap:butt;stroke-linejoin:miter;stroke-miterlimit:10;stroke-dasharray:8, 8;stroke-dashoffset:0;stroke-opacity:1" d="M 0,0 780,0"/></g><g id="g578" transform="translate(796,713.0322)"><path id="path580" style="fill:none;stroke:#f1f1f1;stroke-width:1;stroke-linecap:butt;stroke-linejoin:miter;stroke-miterlimit:10;stroke-dasharray:none;stroke-opacity:1" d="M 0,0 4,0"/></g></g></g></g><g id="g582"><g id="g584"/><g id="g590"><g style="opacity:0.69999701" id="g592" clip-path="url(#clipPath586)"><g id="g594" transform="translate(0,749.9062)"><path id="path596" style="fill:none;stroke:#f1f1f1;stroke-width:1;stroke-linecap:butt;stroke-linejoin:miter;stroke-miterlimit:10;stroke-dasharray:none;stroke-opacity:1" d="M 0,0 4,0"/></g><g id="g598" transform="translate(12,749.9062)"><path id="path600" style="fill:none;stroke:#f1f1f1;stroke-width:1;stroke-linecap:butt;stroke-linejoin:miter;stroke-miterlimit:10;stroke-dasharray:8, 8;stroke-dashoffset:0;stroke-opacity:1" d="M 0,0 780,0"/></g><g id="g602" transform="translate(796,749.9062)"><path id="path604" style="fill:none;stroke:#f1f1f1;stroke-width:1;stroke-linecap:butt;stroke-linejoin:miter;stroke-miterlimit:10;stroke-dasharray:none;stroke-opacity:1" d="M 0,0 4,0"/></g></g></g></g><g id="g606"><g id="g608"/><g id="g614"><g style="opacity:0.69999701" id="g616" clip-path="url(#clipPath610)"><g id="g618" transform="translate(0,786.7803)"><path id="path620" style="fill:none;stroke:#f1f1f1;stroke-width:1;stroke-linecap:butt;stroke-linejoin:miter;stroke-miterlimit:10;stroke-dasharray:none;stroke-opacity:1" d="M 0,0 4,0"/></g><g id="g622" transform="translate(12,786.7803)"><path id="path624" style="fill:none;stroke:#f1f1f1;stroke-width:1;stroke-linecap:butt;stroke-linejoin:miter;stroke-miterlimit:10;stroke-dasharray:8, 8;stroke-dashoffset:0;stroke-opacity:1" d="M 0,0 780,0"/></g><g id="g626" transform="translate(796,786.7803)"><path id="path628" style="fill:none;stroke:#f1f1f1;stroke-width:1;stroke-linecap:butt;stroke-linejoin:miter;stroke-miterlimit:10;stroke-dasharray:none;stroke-opacity:1" d="M 0,0 4,0"/></g></g></g></g></g></g><g transform="translate(178.2738,543.1293)" id="g630"><path id="path632" style="fill:#961f23;fill-opacity:1;fill-rule:nonzero;stroke:none" d="m 0,0 -59.909,60.322 -118.365,-79.797 0,-65.404 111.491,75.162 79.889,-80.438 89.863,167.166 160.979,-110.567 165.557,124.232 1.003,10.083 -7.071,0.207 -1.164,10.766 -10.194,-1.674 2.889,15.764 -9.985,-0.262 5.519,11.035 -8.064,1.571 L 262.549,33.195 83.83,155.946 0,0 Z"/></g><g transform="translate(593.3613,58.9912)" id="g634"><path id="path636" style="fill:#961f23;fill-opacity:1;fill-rule:nonzero;stroke:none" d="m 0,0 -139.361,86.271 7.974,1.279 -5.658,11.255 13.191,0.912 -1.27,9.554 7.663,0.772 -6.888,9.267 11.557,-1.724 -2.262,7.953 7.186,0 -2.948,6.842 L 2.899,61.984 54.75,87.726 78.864,39.15 0,0 Z"/></g><g transform="translate(674.9795,39.2119)" id="g638"><path id="path640" style="fill:#961f23;fill-opacity:1;fill-rule:nonzero;stroke:none" d="M 0,0 89.761,135.123 -72.143,145.318 0,0 Z"/></g><g id="g642"><g clip-path="url(#clipPath646)" id="g644"><g transform="translate(477.9346,99.1514)" id="g650"><path id="path652" style="fill:#961f23;fill-opacity:1;fill-rule:nonzero;stroke:none" d="m 0,0 c 0,0 -12.317,-3.798 -14.896,-4.083 -2.578,-0.287 -6.59,-1.719 -6.59,-1.719 l 2.579,-9.167 8.165,5.156 3.294,-5.156 c 0,0 4.01,0.573 7.448,0 3.437,-0.572 10.6,3.726 10.6,3.726 L 0,0 Z"/></g><g transform="translate(515.4609,93.0176)" id="g654"><path id="path656" style="fill:#961f23;fill-opacity:1;fill-rule:nonzero;stroke:none" d="M 0,0 -3.152,-6.004 4.584,-8.89 9.165,0 0,0 Z"/></g><g transform="translate(424.9385,84.6904)" id="g658"><path id="path660" style="fill:#961f23;fill-opacity:1;fill-rule:nonzero;stroke:none" d="M 0,0 1.72,-4.011 8.593,2.887 0,0 Z"/></g><g transform="translate(601.7109,649.519)" id="g662"><path id="path664" style="fill:#c0272d;fill-opacity:1;fill-rule:nonzero;stroke:none" d="m 0,0 -1.164,10.766 -10.193,-1.674 2.888,15.763 -9.985,-0.262 5.518,11.035 -8.063,1.572 -139.89,-104.971 -178.717,122.75 -83.831,-155.946 -59.908,60.321 -118.366,-79.796 0,-65.404 111.491,75.162 79.889,-80.438 89.863,167.166 160.98,-110.567 L 6.068,-10.29 7.07,-0.208 0,0 Z"/></g><g transform="translate(593.3613,64.4141)" id="g666"><path id="path668" style="fill:#c0272d;fill-opacity:1;fill-rule:nonzero;stroke:none" d="m 0,0 -139.361,86.271 7.974,1.28 -5.658,11.254 13.191,0.912 -1.27,9.554 7.663,0.772 -6.888,9.267 11.557,-1.724 -2.262,7.953 7.186,0 -2.948,6.843 L 2.899,61.984 54.75,87.726 78.864,39.15 0,0 Z"/></g><g transform="translate(674.9795,44.6348)" id="g670"><path id="path672" style="fill:#c0272d;fill-opacity:1;fill-rule:nonzero;stroke:none" d="M 0,0 89.761,135.123 -72.143,145.318 0,0 Z"/></g><g transform="translate(477.9346,102.5986)" id="g674"><path id="path676" style="fill:#c0272d;fill-opacity:1;fill-rule:nonzero;stroke:none" d="m 0,0 c 0,0 -12.317,-3.798 -14.896,-4.083 -2.578,-0.286 -6.59,-1.718 -6.59,-1.718 l 2.579,-9.167 8.165,5.156 3.294,-5.156 c 0,0 4.01,0.572 7.448,0 3.437,-0.572 10.6,3.724 10.6,3.724 L 0,0 Z"/></g><g transform="translate(515.4609,95.0889)" id="g678"><path id="path680" style="fill:#c0272d;fill-opacity:1;fill-rule:nonzero;stroke:none" d="M 0,0 -3.152,-6.004 4.584,-8.891 9.165,0 0,0 Z"/></g><g transform="translate(424.9385,86.1982)" id="g682"><path id="path684" style="fill:#c0272d;fill-opacity:1;fill-rule:nonzero;stroke:none" d="M 0,0 1.72,-4.011 8.593,2.887 0,0 Z"/></g><g transform="translate(201.3657,386.8125)" id="g686"><path id="path688" style="fill:#1a1a1a;fill-opacity:1;fill-rule:nonzero;stroke:none" d="m 0,0 -17.896,0 c -26.957,0 -48.808,-21.852 -48.808,-48.809 l 0,-21.743 0,-213.662 44.796,0 0,165.032 c 1.325,-0.108 2.66,-0.178 4.012,-0.178 l 17.896,0 c 1.352,0 2.688,0.07 4.012,0.178 l 0,-165.032 44.796,0 0,213.662 0,21.743 C 48.808,-21.852 26.956,0 0,0"/></g><g transform="translate(315.7544,468.7124)" id="g690"><path id="path692" style="fill:#004d6c;fill-opacity:1;fill-rule:nonzero;stroke:none" d="m 0,0 -41.388,53.266 c -6.479,7.162 -16.737,8.846 -24.999,4.796 -15.201,20.75 -62.256,14.19 -91.44,10.187 -33.866,-4.645 -36.597,-20.595 -36.602,-20.622 -0.991,-2.116 -1.666,-4.422 -1.909,-6.879 l -11.633,-66.446 c -1.017,-10.275 5.501,-19.552 15.055,-22.367 l 1.646,-104.097 132.951,0 c -4.615,38.004 -4.473,117.656 -3.938,163.49 l 30.866,-39.724 c 7.839,-8.666 21.224,-9.34 29.892,-1.497 C 7.17,-22.054 7.84,-8.668 0,0"/></g><g transform="translate(199.3711,512.2524)" id="g694"><path id="path696" style="fill:#991f24;fill-opacity:1;fill-rule:nonzero;stroke:none" d="m 0,0 -11.19,0 -4.609,-10.56 4.609,-6.994 5.595,0 5.595,0 4.609,6.994 L 0,0 Z"/></g><g transform="translate(199.3711,494.6982)" id="g698"><path id="path700" style="fill:#ec1c24;fill-opacity:1;fill-rule:nonzero;stroke:none" d="M 0,0 -11.19,0 -22.851,-114.201 -5.595,-134.764 11.66,-114.201 0,0 Z"/></g><g transform="translate(194.0684,75.5732)" id="g702"><path id="path704" style="fill:#000000;fill-opacity:1;fill-rule:nonzero;stroke:none" d="m 0,0 0,12.7 c 0,7.912 -6.415,14.325 -14.326,14.325 l -45.08,0 0,-14.325 0,-12.7 L 0,0 Z"/></g><g transform="translate(263.4321,75.5732)" id="g706"><path id="path708" style="fill:#000000;fill-opacity:1;fill-rule:nonzero;stroke:none" d="m 0,0 0,12.7 c 0,7.912 -6.415,14.325 -14.326,14.325 l -43.728,0 c 0,0 -0.017,-5.079 -0.017,-12.991 l 0,-12.7 L 0,0 Z"/></g><g transform="translate(257.4355,591.4463)" id="g710"><path id="path712" style="fill:#ffe2aa;fill-opacity:1;fill-rule:nonzero;stroke:none" d="m 0,0 c 0,-40.638 -29.205,-73.583 -65.232,-73.583 -36.027,0 -65.231,32.945 -65.231,73.583 0,40.64 29.204,73.583 65.231,73.583 C -29.205,73.583 0,40.64 0,0"/></g><g transform="translate(189.7202,591.4463)" id="g714"><path id="path716" style="fill:#1a1a1a;fill-opacity:1;fill-rule:nonzero;stroke:none" d="m 0,0 c 0,-3.863 -3.133,-6.996 -6.997,-6.996 -3.864,0 -6.997,3.133 -6.997,6.996 0,3.866 3.133,6.998 6.997,6.998 C -3.133,6.998 0,3.866 0,0"/></g><g transform="translate(231.7026,608.1499)" id="g718"><path id="path720" style="fill:#1a1a1a;fill-opacity:1;fill-rule:nonzero;stroke:none" d="m 0,0 c 0,-3.864 -3.132,-6.998 -6.997,-6.998 -3.864,0 -6.997,3.134 -6.997,6.998 0,3.865 3.133,6.998 6.997,6.998 C -3.132,6.998 0,3.865 0,0"/></g><g transform="translate(219.2344,565.9687)" id="g722"><path id="path724" style="fill:#1a1a1a;fill-opacity:1;fill-rule:nonzero;stroke:none" d="M 0,0 C 1.31,-3.637 0.374,-7.303 -2.088,-8.191 -4.552,-9.077 -7.611,-6.85 -8.92,-3.213 -10.23,0.422 -9.294,4.089 -6.832,4.975 -4.369,5.863 -1.31,3.635 0,0"/></g><g transform="translate(182.7236,616.9541)" id="g726"><path id="path728" style="fill:none;stroke:#1a1a1a;stroke-width:3.61500001;stroke-linecap:round;stroke-linejoin:miter;stroke-miterlimit:10;stroke-dasharray:none;stroke-opacity:1" d="M 0,0 C 0,0 -3.386,-14.9 -18.735,-18.51"/></g><g transform="translate(219.8262,628.2397)" id="g730"><path id="path732" style="fill:none;stroke:#1a1a1a;stroke-width:3.61500001;stroke-linecap:round;stroke-linejoin:miter;stroke-miterlimit:10;stroke-dasharray:none;stroke-opacity:1" d="M 0,0 C 0,0 3.3,-10.384 17.745,-9.028"/></g><g transform="translate(149.9937,628.2397)" id="g734"><path id="path736" style="fill:#796356;fill-opacity:1;fill-rule:nonzero;stroke:none" d="m 0,0 c -0.167,1.621 42.888,-8.578 113.311,22.12 0,0 -13.544,0.452 -18.51,2.257 0,0 9.03,5.867 7.675,15.349 0,0 -7.223,-7.674 -13.092,-4.514 0,0 8.577,17.605 2.257,28.44 0,0 -18.683,-13.089 -31.913,-11.736 -13.23,1.354 -79.591,9.933 -82.75,-37.92 0,0 -23.926,-18.514 -15.801,-43.792 8.127,-25.277 15.348,-35.66 14.897,-45.591 0,0 4.842,-1.36 3.776,11.51 0,0 25.567,11.509 20.15,63.877"/></g><g transform="translate(153.1177,532.1025)" id="g738"><path id="path740" style="fill:#2e86a6;fill-opacity:1;fill-rule:nonzero;stroke:none" d="m 0,0 -42.102,-85.969 c -4.354,-10.846 0.911,-23.17 11.76,-27.523 10.847,-4.354 23.17,0.912 27.523,11.759 0,0 42.086,83.387 42.102,85.968 L 0,0 Z"/></g><g transform="translate(192.4009,516.3379)" id="g742"><path id="path744" style="fill:#ffcd94;fill-opacity:1;fill-rule:nonzero;stroke:none" d="M 0,0 5.994,12.195 C 10.348,23.042 5.083,35.364 -5.765,39.717 -16.614,44.07 -28.936,38.806 -33.29,27.959 L -39.283,15.765 0,0 Z"/></g><g transform="translate(319.5635,462.4028)" id="g746"><path id="path748" style="fill:#2e86a6;fill-opacity:1;fill-rule:nonzero;stroke:none" d="m 0,0 -42.102,85.969 -41.099,-12.1 43.917,-89.634 C -34.93,-26.611 -22.607,-31.877 -11.76,-27.523 -0.911,-23.17 4.354,-10.846 0,0"/></g><g transform="translate(238.1777,532.6074)" id="g750"><path id="path752" style="fill:#ffcd94;fill-opacity:1;fill-rule:nonzero;stroke:none" d="M 0,0 -5.994,12.195 C -10.347,23.041 -5.082,35.363 5.765,39.717 16.614,44.07 28.937,38.806 33.29,27.959 L 39.284,15.765 0,0 Z"/></g></g></g></g></svg>